<?xml version="1.0" encoding="UTF-8"?>
<!DOCTYPE svg PUBLIC "-//W3C//DTD SVG 1.1//EN" "http://www.w3.org/Graphics/SVG/1.1/DTD/svg11.dtd">
<svg xmlns="http://www.w3.org/2000/svg" xmlns:xlink="http://www.w3.org/1999/xlink" version="1.1" width="190px" height="210px" viewBox="-0.5 -0.5 190 210"><defs/><g><ellipse cx="95" cy="25" rx="20" ry="20" fill="#e1d5e7" stroke="#9673a6" stroke-width="10" pointer-events="all"/><ellipse cx="25" cy="65" rx="20" ry="20" fill="#e1d5e7" stroke="#9673a6" stroke-width="10" pointer-events="all"/><ellipse cx="95" cy="185" rx="20" ry="20" fill="#e1d5e7" stroke="#9673a6" stroke-width="10" pointer-events="all"/><ellipse cx="165" cy="145" rx="20" ry="20" fill="#e1d5e7" stroke="#9673a6" stroke-width="10" pointer-events="all"/><ellipse cx="165" cy="65" rx="20" ry="20" fill="#e1d5e7" stroke="#9673a6" stroke-width="10" pointer-events="all"/><ellipse cx="25" cy="145" rx="20" ry="20" fill="#e1d5e7" stroke="#9673a6" stroke-width="10" pointer-events="all"/><ellipse cx="135" cy="85" rx="20" ry="20" fill="#dae8fc" stroke="#6c8ebf" stroke-width="10" pointer-events="all"/><path d="M 72.89 76.06 L 77.11 73.94" fill="none" stroke="#6c8ebf" stroke-width="10" stroke-miterlimit="10" pointer-events="stroke"/><ellipse cx="55" cy="85" rx="20" ry="20" fill="#dae8fc" stroke="#6c8ebf" stroke-width="10" pointer-events="all"/><path d="M 112.89 73.94 L 117.11 76.06" fill="none" stroke="#6c8ebf" stroke-width="10" stroke-miterlimit="10" pointer-events="stroke"/><ellipse cx="95" cy="65" rx="20" ry="20" fill="#dae8fc" stroke="#6c8ebf" stroke-width="10" pointer-events="all"/><path d="M 117.11 133.94 L 112.89 136.06" fill="none" stroke="#6c8ebf" stroke-width="10" stroke-miterlimit="10" pointer-events="stroke"/><ellipse cx="135" cy="125" rx="20" ry="20" fill="#dae8fc" stroke="#6c8ebf" stroke-width="10" pointer-events="all"/><path d="M 77.11 136.06 L 72.89 133.94" fill="none" stroke="#6c8ebf" stroke-width="10" stroke-miterlimit="10" pointer-events="stroke"/><ellipse cx="95" cy="145" rx="20" ry="20" fill="#dae8fc" stroke="#6c8ebf" stroke-width="10" pointer-events="all"/><ellipse cx="55" cy="125" rx="20" ry="20" fill="#dae8fc" stroke="#6c8ebf" stroke-width="10" pointer-events="all"/></g></svg>